{"title":"Sicario Day of the Soldado 2018 1080p WEB-DL DD 5.1 x264 [MW]","magnet":"magnet:?xt=urn:btih:5ddc220092c9c64d49df4a2905fe8ce4521897a3&dn=Sicario+Day+of+the+Soldado+2018+1080p+WEB-DL+DD+5.1+x264+%5BMW%5D&tr=udp%3A%2F%2Ftracker.leechers-paradise.org%3A6969&tr=udp%3A%2F%2Fzer0day.ch%3A1337&tr=udp%3A%2F%2Fopen.demonii.com%3A1337&tr=udp%3A%2F%2Ftracker.coppersurfer.tk%3A6969&tr=udp%3A%2F%2Fexodus.desync.com%3A6969","uploader":"MFreaky","categoryP":"video","categoryS":"hd___movies","size":"2312956292","seeders":"0","leechers":"0","description":" <a href=\"https://pichub.site/image/De7aI\" rel=\"nofollow\" target=\"_NEW\">https://pichub.site/image/De7aI</a> <a href=\"\nhttps://pichub.site/image/DeEsg\" rel=\"nofollow\" target=\"_NEW\">\nhttps://pichub.site/image/DeEsg</a> <a href=\"\nhttps://pichub.site/image/Dec58\" rel=\"nofollow\" target=\"_NEW\">\nhttps://pichub.site/image/Dec58</a> <a href=\"\nhttps://pichub.site/image/DeVzX\" rel=\"nofollow\" target=\"_NEW\">\nhttps://pichub.site/image/DeVzX</a> <a href=\"\nhttps://pichub.site/image/DekqJ\" rel=\"nofollow\" target=\"_NEW\">\nhttps://pichub.site/image/DekqJ</a> <a href=\"\nhttps://pichub.site/image/Deyw5\" rel=\"nofollow\" target=\"_NEW\">\nhttps://pichub.site/image/Deyw5</a>\r\n\r\nIMDB <a href=\"\nhttps://www.imdb.com/title/tt5052474/\" rel=\"nofollow\" target=\"_NEW\">\nhttps://www.imdb.com/title/tt5052474/</a>\r\n\r\nVideo\r\nFormat                                   : AVC\r\nFormat/Info                              : Advanced Video Codec\r\nFormat profile                           : High@L4.1\r\nFormat settings                          : CABAC / 4 Ref Frames\r\nFormat settings, CABAC                   : Yes\r\nFormat settings, RefFrames               : 4 frames\r\nCodec ID                                 : V_MPEG4/ISO/AVC\r\nDuration                                 : 2 h 2 min\r\nBit rate                                 : 2 200 kb/s\r\nWidth                                    : 1 920 pixels\r\nHeight                                   : 800 pixels\r\nDisplay aspect ratio                     : 2.40:1\r\nFrame rate mode                          : Constant\r\nFrame rate                               : 23.976 (24000/1001) FPS\r\nColor space                              : YUV\r\nChroma subsampling                       : 4:2:0\r\nBit depth                                : 8 bits\r\nScan type                                : Progressive\r\nBits/(Pixel*Frame)                       : 0.060\r\nStream size                              : 1.82 GiB (85%)\r\nWriting library                          : x264 core 155 r2901 7d0ff22\r\n\r\nAudio\r\nFormat                                   : AC-3\r\nFormat/Info                              : Audio Coding 3\r\nCodec ID                                 : A_AC3\r\nDuration                                 : 2 h 2 min\r\nBit rate mode                            : Constant\r\nBit rate                                 : 384 kb/s\r\nChannel(s)                               : 6 channels\r\nChannel positions                        : Front: L C R, Side: L R, LFE\r\nSampling rate                            : 48.0 kHz\r\nFrame rate                               : 31.250 FPS (1536 SPF)\r\nBit depth                                : 16 bits\r\nCompression mode                         : Lossy\r\nStream size                              : 336 MiB (15%)\r\nLanguage                                 : English\r\nService kind                             : Complete Main","last_updated":"2018-09-12T12:11:46.608Z","parsed":{"xt":"urn:btih:5ddc220092c9c64d49df4a2905fe8ce4521897a3","dn":"Sicario Day of the Soldado 2018 1080p WEB-DL DD 5.1 x264 [MW]","tr":["udp://exodus.desync.com:6969","udp://open.demonii.com:1337","udp://tracker.coppersurfer.tk:6969","udp://tracker.leechers-paradise.org:6969","udp://zer0day.ch:1337"],"infoHash":"5ddc220092c9c64d49df4a2905fe8ce4521897a3","infoHashBuffer":{"type":"Buffer","data":[93,220,34,0,146,201,198,77,73,223,74,41,5,254,140,228,82,24,151,163]},"name":"Sicario Day of the Soldado 2018 1080p WEB-DL DD 5.1 x264 [MW]","announce":["udp://exodus.desync.com:6969","udp://open.demonii.com:1337","udp://tracker.coppersurfer.tk:6969","udp://tracker.leechers-paradise.org:6969","udp://zer0day.ch:1337"],"urlList":[]}}